<?xml version="1.0" encoding="UTF-8"?>
<svg id="Layer_2" xmlns="http://www.w3.org/2000/svg" viewBox="0 0 334.85 63.92">
  <defs>
    <style>
      .cls-1 {
        fill: none;
      }

      .cls-2 {
        fill: #fff;
      }
    </style>
  </defs>
  <g id="Layer_1-2" data-name="Layer_1">
    <g id="Layer_1-2">
      <g>
        <path class="cls-2" d="M246.99,39.48c-5.6,0-11.26-1.96-15.7-5.92l4.81-5.76c3.33,2.75,6.82,4.49,11.05,4.49,3.33,0,5.34-1.32,5.34-3.49v-.11c0-2.06-1.27-3.12-7.45-4.7-7.45-1.9-12.26-3.96-12.26-11.31v-.11c0-6.71,5.39-11.15,12.95-11.15,5.39,0,9.99,1.69,13.74,4.7l-4.23,6.13c-3.28-2.27-6.5-3.65-9.62-3.65s-4.76,1.43-4.76,3.22v.11c0,2.43,1.59,3.22,7.98,4.86,7.51,1.95,11.73,4.65,11.73,11.1v.11c0,7.35-5.6,11.47-13.58,11.47h0Z"/>
        <path class="cls-2" d="M279.11,38.95h-14.43V1.95h14.43c11.63,0,19.66,7.98,19.66,18.39v.11c0,10.41-8.03,18.5-19.66,18.5ZM290.26,20.45c0-6.55-4.49-11.15-11.15-11.15h-6.29v22.3h6.29c6.66,0,11.15-4.49,11.15-11.05v-.11h0Z"/>
        <path class="cls-2" d="M325.34,38.95l-7.93-11.84h-6.4v11.84h-8.14V1.95h16.91c8.72,0,13.95,4.6,13.95,12.21v.11c0,5.97-3.22,9.72-7.93,11.47l9.04,13.21h-9.51,0ZM325.5,14.58c0-3.49-2.43-5.29-6.4-5.29h-8.09v10.62h8.25c3.96,0,6.24-2.11,6.24-5.23v-.11h0Z"/>
        <path class="cls-2" d="M0,50.03h4.44c4.29,0,7.25,2.96,7.25,6.8v.04c0,3.84-2.96,6.8-7.25,6.8H0v-13.64ZM4.46,63.07c3.92,0,6.55-2.73,6.55-6.18v-.04c0-3.45-2.63-6.22-6.57-6.22H.66v12.43h3.8Z"/>
        <path class="cls-2" d="M16.63,50.03h.66v13.64h-.66v-13.64Z"/>
        <path class="cls-2" d="M22.22,56.89v-.04c0-3.66,2.63-7.05,6.74-7.05,2.14,0,3.47.64,4.83,1.77l-.43.51c-1.19-.99-2.44-1.68-4.44-1.68-3.62,0-6.02,3.08-6.02,6.43v.04c0,3.53,2.28,6.45,6.12,6.45,1.91,0,3.57-.84,4.66-1.75v-4.19h-4.85v-.64h5.5v5.09c-1.27,1.15-3.12,2.09-5.32,2.09-4.29,0-6.78-3.2-6.78-7.02h-.01Z"/>
        <path class="cls-2" d="M39.53,50.03h.66v13.64h-.66v-13.64Z"/>
        <path class="cls-2" d="M49.3,50.63h-4.85v-.6h10.39v.6h-4.87v13.04h-.66v-13.04h-.01Z"/>
        <path class="cls-2" d="M62.4,49.93h.62l6.47,13.74h-.72l-1.85-3.98h-8.44l-1.87,3.98h-.68l6.47-13.74ZM66.63,59.09l-3.94-8.38-3.92,8.38h7.86Z"/>
        <path class="cls-2" d="M73.64,50.03h.66v13.04h8.22v.6h-8.89v-13.64h0Z"/>
        <path class="cls-2" d="M92.73,61.68l.45-.49c1.44,1.36,3.04,2.07,5.03,2.07,2.36,0,3.9-1.29,3.9-3v-.04c0-1.6-.92-2.46-4.21-3.14-3.33-.66-4.64-1.72-4.64-3.68v-.04c0-1.95,1.85-3.53,4.42-3.53,1.87,0,3.35.59,4.64,1.6l-.41.53c-1.25-.99-2.67-1.52-4.27-1.52-2.24,0-3.72,1.34-3.72,2.86v.04c0,1.58.92,2.46,4.23,3.14,3.39.68,4.62,1.77,4.62,3.68v.04c0,2.1-1.81,3.66-4.6,3.66-2.12,0-3.9-.76-5.44-2.18Z"/>
        <path class="cls-2" d="M107.45,50.03h9.61v.6h-8.95v5.87h8.09v.6h-8.09v5.96h9.04v.6h-9.71v-13.64h0Z"/>
        <path class="cls-2" d="M126.98,49.93h.62l6.47,13.74h-.72l-1.85-3.98h-8.44l-1.87,3.98h-.68l6.47-13.74ZM131.21,59.09l-3.94-8.38-3.92,8.38h7.86Z"/>
        <path class="cls-2" d="M138.23,50.03h5.63c1.73,0,3.06.49,3.9,1.31.62.64.99,1.52.99,2.53v.04c0,2.3-1.77,3.64-4.29,3.86l4.54,5.91h-.84l-4.44-5.83h-4.83v5.83h-.66v-13.64h0ZM143.69,57.24c2.81,0,4.4-1.36,4.4-3.29v-.04c0-2.05-1.58-3.27-4.27-3.27h-4.93v6.61h4.8Z"/>
        <path class="cls-2" d="M152.94,56.89v-.04c0-3.84,2.85-7.05,6.74-7.05,2.53,0,3.92.94,5.24,2.16l-.47.49c-1.13-1.09-2.51-2.05-4.79-2.05-3.47,0-6.04,2.9-6.04,6.43v.04c0,3.53,2.61,6.43,6.06,6.43,2.12,0,3.64-.94,4.85-2.18l.47.45c-1.29,1.31-2.94,2.34-5.36,2.34-3.86,0-6.7-3.14-6.7-7.02h0Z"/>
        <path class="cls-2" d="M169.14,50.03h.66v6.47h9.34v-6.47h.66v13.64h-.66v-6.57h-9.34v6.57h-.66v-13.64Z"/>
        <path class="cls-2" d="M195.73,50.63h-4.85v-.6h10.39v.6h-4.87v13.04h-.66v-13.04h0Z"/>
        <path class="cls-2" d="M205.36,50.03h.66v6.47h9.34v-6.47h.66v13.64h-.66v-6.57h-9.34v6.57h-.66v-13.64Z"/>
        <path class="cls-2" d="M226.64,49.93h.62l6.47,13.74h-.72l-1.85-3.98h-8.44l-1.87,3.98h-.68l6.47-13.74ZM230.87,59.09l-3.94-8.38-3.92,8.38h7.86Z"/>
        <path class="cls-2" d="M239.71,50.63h-4.85v-.6h10.39v.6h-4.87v13.04h-.66v-13.04h0Z"/>
        <path class="cls-2" d="M255.16,50.03h.72l4.29,12.69,4.09-12.73h.51l4.11,12.75,4.29-12.71h.68l-4.72,13.74h-.55l-4.09-12.53-4.07,12.53h-.55l-4.72-13.74h0Z"/>
        <path class="cls-2" d="M276.84,56.87v-.04c0-3.72,2.69-7.04,6.82-7.04s6.8,3.31,6.8,7.04c.02,0,.02.02,0,.04,0,3.72-2.69,7.04-6.82,7.04s-6.8-3.31-6.8-7.04ZM289.78,56.89v-.04c0-3.45-2.51-6.45-6.14-6.45s-6.12,2.96-6.12,6.41v.04c0,3.45,2.51,6.45,6.16,6.45s6.1-2.96,6.1-6.41Z"/>
        <path class="cls-2" d="M295.26,50.03h5.63c1.73,0,3.06.49,3.9,1.31.62.64.99,1.52.99,2.53v.04c0,2.3-1.77,3.64-4.29,3.86l4.54,5.91h-.84l-4.44-5.83h-4.83v5.83h-.66v-13.64h0ZM300.72,57.24c2.81,0,4.4-1.36,4.4-3.29v-.04c0-2.05-1.58-3.27-4.27-3.27h-4.93v6.61h4.8Z"/>
        <path class="cls-2" d="M310.72,50.03h.66v9.12l9.14-9.12h.92l-5.94,5.87,6.18,7.78h-.86l-5.79-7.33-3.64,3.61v3.72h-.66v-13.64h-.01Z"/>
        <path class="cls-2" d="M324.81,61.68l.45-.49c1.44,1.36,3.04,2.07,5.03,2.07,2.36,0,3.9-1.29,3.9-3v-.04c0-1.6-.92-2.46-4.21-3.14-3.33-.66-4.64-1.72-4.64-3.68v-.04c0-1.95,1.85-3.53,4.42-3.53,1.87,0,3.35.59,4.64,1.6l-.41.53c-1.25-.99-2.67-1.52-4.27-1.52-2.24,0-3.72,1.34-3.72,2.86v.04c0,1.58.92,2.46,4.23,3.14,3.39.68,4.62,1.77,4.62,3.68v.04c0,2.1-1.81,3.66-4.6,3.66-2.12,0-3.9-.76-5.44-2.18h0Z"/>
        <path class="cls-1" d="M85.23,22h-7.58c.19,3.28,1.22,6.34,2.89,8.95,1.61-.66,3.5-1.22,5.59-1.64-.52-2.25-.82-4.7-.89-7.31h-.01Z"/>
        <path class="cls-1" d="M86.12,12.54c-2.11-.43-3.98-.98-5.58-1.64-1.67,2.62-2.7,5.67-2.89,8.95h7.58c.06-2.6.38-5.06.89-7.31Z"/>
        <path class="cls-1" d="M59.87,22.56h-12.46v14.77h13.35c6.31,0,10.3-2.89,10.3-7.52v-.11c0-4.52-3.94-7.15-11.2-7.15h0Z"/>
        <path class="cls-1" d="M69.02,12.47v-.1c0-4.05-3.31-6.78-9.2-6.78h-12.41v14.46h12.14c5.52,0,9.46-2.68,9.46-7.57h.01Z"/>
        <path class="cls-1" d="M204.53,5.58h-9.51v31.75h9.51c10.25,0,16.72-6.99,16.72-15.77v-.11c0-8.73-6.47-15.88-16.72-15.88h0Z"/>
        <path class="cls-2" d="M147.92,24.56c0,8.88-4.78,13.4-12.25,13.4s-12.46-4.99-12.46-13.67V3.06h-2.73v21.5c0,10.3,6.26,15.88,15.09,15.88s15.09-5.62,15.09-16.19V3.06h-2.73v21.5h0Z"/>
        <polygon class="cls-2" points="184.13 35.07 158.74 3.06 156.17 3.06 156.17 39.85 158.8 39.85 158.8 7.16 184.71 39.85 186.76 39.85 186.76 3.06 184.13 3.06 184.13 35.07"/>
        <path class="cls-2" d="M204.53,3.06h-12.25v36.79h12.25c11.56,0,19.55-8.04,19.55-18.4v-.1c0-10.36-7.99-18.29-19.55-18.29ZM221.25,21.56c0,8.78-6.47,15.77-16.72,15.77h-9.51V5.58h9.51c10.25,0,16.72,7.15,16.72,15.88v.11h0Z"/>
        <path class="cls-2" d="M65.55,20.93c3-1.21,6.26-3.73,6.26-8.73v-.1c0-5.52-4.78-9.04-11.93-9.04h-15.19v36.79h15.98c7.94,0,13.19-3.89,13.19-10.04v-.11c0-5.1-3.89-7.62-8.31-8.78h0ZM47.41,5.58h12.41c5.89,0,9.2,2.73,9.2,6.78v.1c0,4.89-3.94,7.57-9.46,7.57h-12.14V5.58h0ZM71.07,29.81c0,4.63-4,7.52-10.3,7.52h-13.35v-14.77h12.46c7.25,0,11.2,2.63,11.2,7.15v.11h0Z"/>
        <rect class="cls-2" y="3.06" width="2.73" height="36.8"/>
        <polygon class="cls-2" points="36.37 35.07 10.98 3.06 8.41 3.06 8.41 39.85 11.04 39.85 11.04 7.16 36.95 39.85 39 39.85 39 3.06 36.37 3.06 36.37 35.07"/>
        <path class="cls-1" d="M85.23,22h-7.58c.19,3.28,1.22,6.34,2.89,8.95,1.61-.66,3.5-1.22,5.59-1.64-.52-2.25-.82-4.7-.89-7.31h-.01Z"/>
        <path class="cls-1" d="M86.12,12.54c-2.11-.43-3.98-.98-5.58-1.64-1.67,2.62-2.7,5.67-2.89,8.95h7.58c.06-2.6.38-5.06.89-7.31Z"/>
        <path class="cls-1" d="M85.23,22h-7.58c.19,3.28,1.22,6.34,2.89,8.95,1.61-.66,3.5-1.22,5.59-1.64-.52-2.25-.82-4.7-.89-7.31h-.01Z"/>
        <path class="cls-1" d="M95.28,39.52v-8.99c-2.21.04-4.4.21-6.44.5,1.43,4.55,3.78,7.8,6.44,8.49Z"/>
        <path class="cls-1" d="M81.83,32.75c2.22,2.73,5.2,4.81,8.6,5.95-1.56-1.81-2.85-4.32-3.76-7.32-1.79.36-3.43.82-4.84,1.36h0Z"/>
        <path class="cls-1" d="M86.12,12.54c-2.11-.43-3.98-.98-5.58-1.64-1.67,2.62-2.7,5.67-2.89,8.95h7.58c.06-2.6.38-5.06.89-7.31Z"/>
        <path class="cls-1" d="M81.83,9.1c1.4.54,3.04,1,4.84,1.36.91-3,2.21-5.51,3.78-7.32-3.41,1.14-6.39,3.23-8.62,5.96Z"/>
        <path class="cls-1" d="M106.59,12.54c.51,2.25.82,4.71.89,7.31h7.58c-.19-3.28-1.22-6.34-2.89-8.95-1.6.66-3.47,1.22-5.58,1.64Z"/>
        <path class="cls-1" d="M88.84,10.83c2.05.29,4.23.46,6.44.5V2.33c-2.66.7-5.01,3.94-6.44,8.5Z"/>
        <path class="cls-1" d="M102.27,3.15c1.56,1.81,2.86,4.31,3.77,7.32,1.8-.36,3.44-.82,4.84-1.36-2.23-2.73-5.2-4.82-8.62-5.96h.01Z"/>
        <path class="cls-1" d="M97.43,2.33v9c2.22-.04,4.4-.21,6.45-.5-1.43-4.55-3.78-7.8-6.45-8.5Z"/>
        <path class="cls-2" d="M113.98,32.1s.04-.06.06-.09l-.13.03s.05.04.08.06h-.01Z"/>
        <path class="cls-2" d="M96.36.04c-11.52,0-20.89,9.37-20.89,20.89s9.37,20.89,20.89,20.89c1.51,0,2.99-.17,4.41-.48-.06-.11-.11-.22-.15-.34l-.87-2.81c-.73.65-1.51,1.11-2.31,1.32v-8.75l-.6-1.92-.83-2.67-.72-2.3v4.48c-2.43.04-4.78.24-7.02.57-.5-2.13-.81-4.48-.88-6.94h7.31l-.2-.63c-.16-.51-.11-1.04.11-1.51h-7.22c.07-2.46.38-4.8.88-6.94,2.23.34,4.58.54,7.02.58v5.55c.36-.26.78-.41,1.22-.41.32,0,.63.09.93.23v-5.38c2.44-.04,4.79-.24,7.02-.58.5,2.13.81,4.48.88,6.94h-6.23l1.43.86,2.13,1.28h2.66c-.02.52-.04,1.04-.08,1.55l.62.37,1.43.86c.09-.91.16-1.83.19-2.79h7.58c-.13,2.31-.69,4.5-1.59,6.51l.11.07,1.63.98s.07.05.11.08c1.22-2.65,1.92-5.6,1.92-8.71,0-11.52-9.37-20.89-20.89-20.89v.04ZM80.54,10.9c1.6.66,3.47,1.21,5.58,1.64-.51,2.25-.82,4.71-.89,7.31h-7.58c.19-3.28,1.22-6.34,2.89-8.95ZM80.54,30.96c-1.67-2.62-2.7-5.67-2.89-8.95h7.58c.06,2.61.37,5.06.89,7.31-2.08.42-3.98.98-5.59,1.64h.01ZM95.28,30.53v8.99c-2.66-.69-5.01-3.94-6.44-8.49,2.05-.29,4.23-.46,6.44-.5ZM90.43,38.7c-3.4-1.14-6.38-3.23-8.6-5.95,1.41-.54,3.05-1.01,4.84-1.36.9,3,2.2,5.51,3.76,7.32h0ZM86.67,10.46c-1.8-.36-3.44-.82-4.84-1.36,2.23-2.73,5.21-4.82,8.62-5.96-1.56,1.81-2.86,4.31-3.78,7.32ZM95.28,11.33c-2.21-.04-4.4-.21-6.44-.5,1.43-4.55,3.78-7.8,6.44-8.5v9ZM97.43,11.33V2.33c2.67.7,5.02,3.94,6.45,8.5-2.05.29-4.23.46-6.45.5ZM102.27,3.15c3.41,1.14,6.39,3.23,8.62,5.96-1.4.54-3.04,1-4.84,1.36-.91-3-2.21-5.51-3.77-7.32h-.01ZM107.48,19.85c-.06-2.6-.38-5.06-.89-7.31,2.11-.43,3.98-.98,5.58-1.64,1.67,2.62,2.7,5.67,2.89,8.95h-7.58Z"/>
        <path class="cls-2" d="M114.44,30.84l-1.62-.98-5.71-3.44-2.02-1.21-5.33-3.21-2.95-1.78c-.1-.06-.21-.09-.31-.09-.38,0-.71.37-.58.78l1.5,4.81.83,2.67.68,2.19,1.98,6.36,1.12,3.6c.06.19.2.3.36.36.07.03.14.04.22.04.15,0,.3-.06.42-.19.04-.04.08-.06.11-.11l2.09-4.02,2.42,3c.12.15.3.23.48.23.13,0,.27-.04.38-.14l3.35-2.7c.26-.21.3-.6.09-.86l-2.43-3.01,4.35-1.11.13-.03.25-.06c.42-.11.55-.58.34-.9-.05-.07-.09-.15-.18-.2h.03Z"/>
      </g>
    </g>
  </g>
</svg>