<?xml version="1.0" encoding="UTF-8"?>
<svg id="Layer_2" xmlns="http://www.w3.org/2000/svg" viewBox="0 0 41.78 41.82">
  <defs>
    <style>
      .cls-1 {
        fill: none;
      }

      .cls-2 {
        fill: #8c082b;
      }

      .cls-3 {
        fill: #333;
      }
    </style>
  </defs>
  <g id="Layer_1-2" data-name="Layer_1">
    <g id="Layer_1-2">
      <g>
        <path class="cls-1" d="M9.76,22H2.18c.19,3.28,1.22,6.34,2.89,8.95,1.61-.66,3.5-1.22,5.59-1.64-.52-2.25-.82-4.7-.89-7.31h-.01Z"/>
        <path class="cls-1" d="M10.65,12.54c-2.11-.43-3.98-.98-5.58-1.64-1.67,2.62-2.7,5.67-2.89,8.95h7.58c.06-2.6.38-5.06.89-7.31Z"/>
        <path class="cls-1" d="M9.76,22H2.18c.19,3.28,1.22,6.34,2.89,8.95,1.61-.66,3.5-1.22,5.59-1.64-.52-2.25-.82-4.7-.89-7.31h-.01Z"/>
        <path class="cls-1" d="M10.65,12.54c-2.11-.43-3.98-.98-5.58-1.64-1.67,2.62-2.7,5.67-2.89,8.95h7.58c.06-2.6.38-5.06.89-7.31Z"/>
        <g>
          <path class="cls-1" d="M9.76,22H2.18c.19,3.28,1.22,6.34,2.89,8.95,1.61-.66,3.5-1.22,5.59-1.64-.52-2.25-.82-4.7-.89-7.31h-.01Z"/>
          <path class="cls-1" d="M19.81,39.52v-8.99c-2.21.04-4.4.21-6.44.5,1.43,4.55,3.78,7.8,6.44,8.49Z"/>
          <path class="cls-1" d="M6.36,32.75c2.22,2.73,5.2,4.81,8.6,5.95-1.56-1.81-2.85-4.32-3.76-7.32-1.79.36-3.43.82-4.84,1.36h0Z"/>
          <path class="cls-1" d="M10.65,12.54c-2.11-.43-3.98-.98-5.58-1.64-1.67,2.62-2.7,5.67-2.89,8.95h7.58c.06-2.6.38-5.06.89-7.31Z"/>
          <path class="cls-1" d="M6.36,9.1c1.4.54,3.04,1,4.84,1.36.91-3,2.21-5.51,3.78-7.32-3.41,1.14-6.39,3.23-8.62,5.96Z"/>
          <path class="cls-1" d="M31.12,12.54c.51,2.25.82,4.71.89,7.31h7.58c-.19-3.28-1.22-6.34-2.89-8.95-1.6.66-3.47,1.22-5.58,1.64Z"/>
          <path class="cls-1" d="M13.37,10.83c2.05.29,4.23.46,6.44.5V2.33c-2.66.7-5.01,3.94-6.44,8.5Z"/>
          <path class="cls-1" d="M26.8,3.15c1.56,1.81,2.86,4.31,3.77,7.32,1.8-.36,3.44-.82,4.84-1.36-2.23-2.73-5.2-4.82-8.62-5.96h.01Z"/>
          <path class="cls-1" d="M21.96,2.33v9c2.22-.04,4.4-.21,6.45-.5-1.43-4.55-3.78-7.8-6.45-8.5Z"/>
          <path class="cls-3" d="M38.51,32.1s.04-.06.06-.09l-.13.03s.05.04.08.06h-.01Z"/>
          <path class="cls-3" d="M20.89.04C9.37.04,0,9.41,0,20.93s9.37,20.89,20.89,20.89c1.51,0,2.99-.17,4.41-.48-.06-.11-.11-.22-.15-.34l-.87-2.81c-.73.65-1.51,1.11-2.31,1.32v-8.75l-.6-1.92-.83-2.67-.72-2.3v4.48c-2.43.04-4.78.24-7.02.57-.5-2.13-.81-4.48-.88-6.94h7.31l-.2-.63c-.16-.51-.11-1.04.11-1.51h-7.22c.07-2.46.38-4.8.88-6.94,2.23.34,4.58.54,7.02.58v5.55c.36-.26.78-.41,1.22-.41.32,0,.63.09.93.23v-5.38c2.44-.04,4.79-.24,7.02-.58.5,2.13.81,4.48.88,6.94h-6.23l1.43.86,2.13,1.28h2.66c-.02.52-.04,1.04-.08,1.55l.62.37,1.43.86c.09-.91.16-1.83.19-2.79h7.58c-.13,2.31-.69,4.5-1.59,6.51l.11.07,1.63.98s.07.05.11.08c1.22-2.65,1.92-5.6,1.92-8.71C41.78,9.37,32.41,0,20.89,0v.04ZM5.07,10.9c1.6.66,3.47,1.21,5.58,1.64-.51,2.25-.82,4.71-.89,7.31H2.18c.19-3.28,1.22-6.34,2.89-8.95ZM5.07,30.96c-1.67-2.62-2.7-5.67-2.89-8.95h7.58c.06,2.61.37,5.06.89,7.31-2.08.42-3.98.98-5.59,1.64h.01ZM19.81,30.53v8.99c-2.66-.69-5.01-3.94-6.44-8.49,2.05-.29,4.23-.46,6.44-.5ZM14.96,38.7c-3.4-1.14-6.38-3.23-8.6-5.95,1.41-.54,3.05-1.01,4.84-1.36.9,3,2.2,5.51,3.76,7.32h0ZM11.2,10.46c-1.8-.36-3.44-.82-4.84-1.36,2.23-2.73,5.21-4.82,8.62-5.96-1.56,1.81-2.86,4.31-3.78,7.32ZM19.81,11.33c-2.21-.04-4.4-.21-6.44-.5,1.43-4.55,3.78-7.8,6.44-8.5v9ZM21.96,11.33V2.33c2.67.7,5.02,3.94,6.45,8.5-2.05.29-4.23.46-6.45.5ZM26.8,3.15c3.41,1.14,6.39,3.23,8.62,5.96-1.4.54-3.04,1-4.84,1.36-.91-3-2.21-5.51-3.77-7.32h-.01ZM32.01,19.85c-.06-2.6-.38-5.06-.89-7.31,2.11-.43,3.98-.98,5.58-1.64,1.67,2.62,2.7,5.67,2.89,8.95h-7.58Z"/>
          <path class="cls-2" d="M38.97,30.84l-1.62-.98-5.71-3.44-2.02-1.21-5.33-3.21-2.95-1.78c-.1-.06-.21-.09-.31-.09-.38,0-.71.37-.58.78l1.5,4.81.83,2.67.68,2.19,1.98,6.36,1.12,3.6c.06.19.2.3.36.36.07.03.14.04.22.04.15,0,.3-.06.42-.19.04-.04.08-.06.11-.11l2.09-4.02,2.42,3c.12.15.3.23.48.23.13,0,.27-.04.38-.14l3.35-2.7c.26-.21.3-.6.09-.86l-2.43-3.01,4.35-1.11.13-.03.25-.06c.42-.11.55-.58.34-.9-.05-.07-.09-.15-.18-.2h.03Z"/>
        </g>
      </g>
    </g>
  </g>
</svg>